<?xml version="1.0" encoding="UTF-8"?>
<svg xmlns="http://www.w3.org/2000/svg" xmlns:xlink="http://www.w3.org/1999/xlink" width="59pt" height="36pt" viewBox="0 0 59 36" version="1.1">
<g id="surface1">
<path style=" stroke:none;fill-rule:nonzero;fill:rgb(0%,43.529412%,41.176471%);fill-opacity:1;" d="M 48.328125 15.039062 L 40.175781 7.070312 C 39.898438 6.800781 39.453125 6.804688 39.179688 7.078125 L 37.777344 8.488281 L 34.777344 5.566406 C 34.550781 5.34375 34.15625 5.382812 33.894531 5.644531 L 30.933594 8.628906 L 26.984375 2.964844 C 26.707031 2.570312 26.261719 2.570312 25.984375 2.964844 L 20.996094 10.117188 L 19.15625 8.628906 C 18.882812 8.402344 18.433594 8.40625 18.160156 8.632812 L 10.109375 15.363281 C 9.667969 15.730469 9.984375 16.355469 10.613281 16.351562 L 18.714844 16.292969 L 31.359375 16.292969 C 31.445312 16.328125 31.539062 16.351562 31.644531 16.351562 L 47.839844 16.234375 C 48.46875 16.230469 48.777344 15.476562 48.328125 15.039062 Z M 48.328125 15.039062 "/>
<path style=" stroke:none;fill-rule:nonzero;fill:rgb(0%,43.529412%,41.176471%);fill-opacity:1;" d="M 47.832031 19.671875 L 34.832031 19.714844 C 34.765625 19.6875 34.695312 19.671875 34.621094 19.671875 L 26.824219 19.699219 C 26.75 19.679688 26.675781 19.671875 26.59375 19.671875 L 10.398438 19.726562 C 9.769531 19.730469 9.457031 20.355469 9.902344 20.71875 L 18.023438 27.367188 C 18.296875 27.59375 18.746094 27.589844 19.019531 27.363281 L 20.957031 25.757812 L 26.070312 33.03125 C 26.34375 33.421875 26.789062 33.421875 27.066406 33.023438 L 30.402344 28.207031 L 32.710938 30.472656 C 32.933594 30.695312 33.328125 30.660156 33.589844 30.394531 L 37.148438 26.835938 L 39.269531 28.917969 C 39.542969 29.191406 39.992188 29.191406 40.265625 28.917969 L 48.335938 20.859375 C 48.777344 20.421875 48.460938 19.667969 47.832031 19.671875 Z M 47.832031 19.671875 "/>
<path style=" stroke:none;fill-rule:nonzero;fill:rgb(23.529412%,54.901961%,67.45098%);fill-opacity:1;" d="M 9.90625 16.941406 L 48.566406 16.941406 L 48.566406 18.878906 L 9.90625 18.878906 Z M 9.90625 16.941406 "/>
</g>
</svg>
