<?xml version="1.0" encoding="utf-8"?>
<!-- Generator: Adobe Illustrator 25.0.1, SVG Export Plug-In . SVG Version: 6.00 Build 0)  -->
<svg version="1.1" id="レイヤー_1" xmlns="http://www.w3.org/2000/svg" xmlns:xlink="http://www.w3.org/1999/xlink" x="0px"
	 y="0px" viewBox="0 0 595.28 595.28" style="enable-background:new 0 0 595.28 595.28;" xml:space="preserve">
<style type="text/css">
	.st0{fill:#006F69;}
</style>
<g>
	<path class="st0" d="M221.28,172.56c3.56-3.74,3.43-9.68-0.31-13.24c-3.75-3.56-9.68-3.43-13.24,0.31
		c-3.56,3.75-3.43,9.68,0.31,13.24c1.81,1.75,4.12,2.56,6.49,2.56C216.97,175.44,219.41,174.5,221.28,172.56z"/>
	<path class="st0" d="M240.7,141.96c-5.06,1-8.43,5.87-7.43,10.93c0.81,4.5,4.74,7.68,9.18,7.68c0.57,0,1.19-0.06,1.75-0.19
		c5.06-0.93,8.43-5.87,7.49-10.93C250.69,144.34,245.82,141.03,240.7,141.96z"/>
	<path class="st0" d="M265.43,150.02c-1.81,4.87,0.56,10.24,5.43,12.12c1.06,0.44,2.24,0.62,3.31,0.62c3.81,0,7.37-2.24,8.81-5.99
		c1.81-4.81-0.56-10.24-5.43-12.11C272.73,142.84,267.3,145.21,265.43,150.02z"/>
	<path class="st0" d="M310.72,227.21c-0.61-0.12-1.24-0.19-1.89-0.19c-0.65,0-1.28,0.07-1.89,0.19c-4.27,0.87-7.48,4.63-7.48,9.12
		c0,0.01,0,0.02,0,0.03c0,0.01,0,0.02,0,0.03c0,4.48,3.2,8.24,7.48,9.12c0.61,0.12,1.24,0.19,1.89,0.19c0.65,0,1.28-0.06,1.89-0.19
		c4.27-0.87,7.48-4.63,7.48-9.12c0-0.01,0-0.02,0-0.03c0-0.01,0-0.02,0-0.03C318.2,231.84,314.99,228.08,310.72,227.21z"/>
	<path class="st0" d="M207.98,196.79c1.5-4.99-1.31-10.18-6.24-11.68c-4.99-1.5-10.18,1.31-11.68,6.24
		c-1.5,4.93,1.25,10.18,6.24,11.68c0.87,0.25,1.81,0.38,2.68,0.38C203.04,203.42,206.73,200.85,207.98,196.79z"/>
	<path class="st0" d="M293.47,165.88c-4.37,2.75-5.62,8.56-2.81,12.93c1.81,2.75,4.81,4.31,7.87,4.31c1.75,0,3.49-0.5,5.06-1.5
		c4.37-2.81,5.62-8.62,2.81-12.93C303.58,164.32,297.83,163.08,293.47,165.88z"/>
	<path class="st0" d="M187.8,219.34c-1.74,1.74-2.74,4.18-2.74,6.62c0,2.5,1,4.87,2.74,6.62c1.75,1.74,4.19,2.74,6.62,2.74
		c2.43,0,4.87-1,6.62-2.74c1.75-1.75,2.75-4.12,2.75-6.62c0-2.43-1-4.87-2.75-6.62C197.55,215.84,191.3,215.84,187.8,219.34z"/>
	<path class="st0" d="M302.21,358.9c-1.75,1.75-2.74,4.12-2.74,6.62c0,2.43,0.99,4.87,2.74,6.62c1.75,1.75,4.18,2.75,6.62,2.75
		c2.49,0,4.87-1,6.62-2.75c1.75-1.75,2.75-4.18,2.75-6.62c0-2.5-1-4.87-2.75-6.62C312.01,355.41,305.71,355.41,302.21,358.9z"/>
	<path class="st0" d="M366.02,149.46c-0.99,5.06,2.38,9.99,7.43,10.93c0.62,0.13,1.19,0.13,1.75,0.13c4.43,0.06,8.37-3.12,9.18-7.62
		c1-5.05-2.31-9.93-7.43-10.93C371.9,141.03,366.96,144.34,366.02,149.46z"/>
	<path class="st0" d="M310.47,194.87c-0.81-0.16-1.65-0.26-2.52-0.19c-5.18,0.44-8.99,4.93-8.62,10.06c0,0.06,0,0.06,0,0.06
		c0.31,3.94,3.1,7.03,6.68,8.11c0.72,0.25,1.46,0.44,2.24,0.51c0.13,0,0.25,0,0.38,0c0.12,0,0.25,0,0.37,0c0.13,0,0.25,0,0.38,0
		c0.78-0.07,1.52-0.26,2.23-0.5c3.63-1.07,6.41-4.17,6.76-8.18C318.74,199.86,315.25,195.61,310.47,194.87z"/>
	<path class="st0" d="M327,178.81c2.81-4.37,1.56-10.12-2.74-12.93c-4.37-2.81-10.18-1.56-12.99,2.81
		c-2.81,4.31-1.56,10.12,2.81,12.93c1.56,1,3.31,1.5,5.06,1.5C322.19,183.12,325.25,181.56,327,178.81z"/>
	<path class="st0" d="M403.18,175.5c2.31,0,4.62-0.87,6.49-2.62c3.68-3.62,3.81-9.49,0.25-13.24c-3.56-3.74-9.49-3.87-13.24-0.31
		c-3.74,3.56-3.87,9.49-0.25,13.24h-0.06C398.25,174.5,400.69,175.5,403.18,175.5z"/>
	<path class="st0" d="M340.11,144.65c-4.81,1.87-7.24,7.31-5.37,12.11c1.44,3.75,4.93,5.99,8.74,5.99c1.12,0,2.24-0.18,3.37-0.62
		c4.81-1.87,7.18-7.24,5.37-12.12C350.35,145.21,344.92,142.84,340.11,144.65z"/>
	<path class="st0" d="M418.67,203.42c0.87,0,1.81-0.13,2.68-0.38c4.99-1.5,7.81-6.74,6.31-11.68c-1.56-4.93-6.74-7.74-11.74-6.24
		c-4.93,1.5-7.74,6.74-6.24,11.68C410.92,200.85,414.61,203.42,418.67,203.42z"/>
	<circle class="st0" cx="308.83" cy="300.95" r="9.37"/>
	<circle class="st0" cx="308.83" cy="333.24" r="9.37"/>
	<circle class="st0" cx="308.83" cy="268.67" r="9.37"/>
	<path class="st0" d="M423.22,235.32c2.5,0,4.87-1,6.62-2.74c1.74-1.69,2.74-4.12,2.74-6.62c0-2.43-1-4.87-2.74-6.62
		c-3.44-3.43-9.75-3.43-13.24,0c-1.75,1.74-2.75,4.18-2.75,6.62c0,2.5,1,4.93,2.75,6.62C418.36,234.32,420.79,235.32,423.22,235.32z
		"/>
	<polygon class="st0" points="321.02,406.53 296.66,406.53 296.66,422.03 138.6,422.03 138.6,468.61 479.07,468.61 479.07,422.03 
		321.02,422.03 	"/>
	<rect x="296.66" y="394.05" class="st0" width="24.37" height="9.06"/>
</g>
</svg>
