<?xml version="1.0" encoding="utf-8"?>
<!-- Generator: Adobe Illustrator 25.0.1, SVG Export Plug-In . SVG Version: 6.00 Build 0)  -->
<svg version="1.1" id="レイヤー_1" xmlns="http://www.w3.org/2000/svg" xmlns:xlink="http://www.w3.org/1999/xlink" x="0px"
	 y="0px" viewBox="0 0 257.95 155.91" style="enable-background:new 0 0 257.95 155.91;" xml:space="preserve">
<style type="text/css">
	.st0{fill:#006F69;}
	.st1{fill:#3C8CAC;}
</style>
<g>
	<path class="st0" d="M211.3,65.13l-35.65-34.52c-1.21-1.18-3.16-1.16-4.36,0.03l-6.13,6.11l-13.12-12.67
		c-0.99-0.95-2.71-0.79-3.86,0.35l-12.93,12.92l-17.27-24.53c-1.22-1.71-3.17-1.71-4.37,0L91.79,43.81l-8.03-6.46
		c-1.21-0.98-3.16-0.96-4.36,0.03L44.2,66.53c-1.93,1.6-0.54,4.3,2.21,4.28l35.41-0.25h55.28c0.38,0.16,0.79,0.25,1.25,0.25
		l70.81-0.5C211.91,70.29,213.26,67.02,211.3,65.13z"/>
	<path class="st0" d="M209.12,85.19l-56.84,0.2c-0.29-0.12-0.59-0.19-0.92-0.19l-34.09,0.12c-0.31-0.08-0.64-0.13-1-0.13
		l-70.81,0.25c-2.75,0.01-4.11,2.72-2.16,4.3l35.5,28.79c1.2,0.99,3.16,0.98,4.36-0.01l8.46-6.96l22.36,31.52
		c1.2,1.69,3.15,1.69,4.35-0.03l14.59-20.87l10.09,9.81c0.98,0.96,2.7,0.81,3.85-0.33l15.56-15.43l9.26,9.03
		c1.21,1.19,3.16,1.18,4.36-0.01l35.28-34.9C213.25,88.44,211.87,85.18,209.12,85.19z"/>
	<rect x="43.31" y="73.37" class="st1" width="169.03" height="8.4"/>
</g>
</svg>
